FFmpeg version SVN-r25716, Copyright (c) 2000-2010 the FFmpeg developers  built on Nov 10 2010 12:23:18 with gcc 4.1.2 20080704 (Red Hat 4.1.2-48)  configuration: --enable-libmp3lame --enable-shared --disable-mmx --arch=x86_64  libavutil     50.33. 0 / 50.33. 0  libavcore      0.12. 1 /  0.12. 1  libavcodec    52.94. 4 / 52.94. 4  libavformat   52.84. 0 / 52.84. 0  libavdevice   52. 2. 2 / 52. 2. 2  libavfilter    1.59. 0 /  1.59. 0  libswscale     0.12. 0 /  0.12. 0Seems stream 0 codec frame rate differs from container frame rate: 1000.00 (1000/1) -> 12.00 (12/1)Input #0, mov,mp4,m4a,3gp,3g2,mj2, from '/RAID10/data/converted_video_files/9066.mov':  Metadata:    major_brand     : qt      minor_version   : 537199360    compatible_brands: qt    Duration: 00:00:08.75, start: 0.000000, bitrate: 53264 kb/s    Stream #0.0(eng): Video: mpeg4, yuv420p, 1360x1036 [PAR 1:1 DAR 340:259], 53262 kb/s, 12 fps, 12 tbr, 600 tbn, 1k tbc[buffer @ 0x1c5b430] w:1360 h:1036 pixfmt:yuv420pOutput #0, flv, to '/RAID10/data/converted_video_files/9066.flv':  Metadata:    encoder         : Lavf52.84.0    Stream #0.0(eng): Video: flv, yuv420p, 1360x1036 [PAR 1:1 DAR 340:259], q=2-31, 600 kb/s, 1k tbn, 24 tbcStream mapping:  Stream #0.0 -> #0.0Press [q] to stop encodingframe=    5 fps=  0 q=8.8 size=    1156kB time=0.37 bitrate=25318.7kbits/s    frame=   11 fps= 10 q=26.0 size=    1444kB time=0.87 bitrate=13536.3kbits/s    frame=   18 fps= 10 q=31.0 size=    1650kB time=1.46 bitrate=9263.5kbits/s    frame=   24 fps= 11 q=31.0 size=    1796kB time=1.96 bitrate=7508.6kbits/s    frame=   31 fps= 11 q=31.0 size=    2012kB time=2.54 bitrate=6485.6kbits/s    frame=   38 fps= 11 q=31.0 size=    2214kB time=3.12 bitrate=5805.5kbits/s    frame=   44 fps= 11 q=31.0 size=    2367kB time=3.62 bitrate=5351.5kbits/s    frame=   51 fps= 12 q=31.0 size=    2579kB time=4.21 bitrate=5018.9kbits/s    frame=   57 fps= 12 q=31.0 size=    2728kB time=4.71 bitrate=4745.8kbits/s    frame=   64 fps= 12 q=31.0 size=    2938kB time=5.29 bitrate=4547.3kbits/s    frame=   70 fps= 12 q=31.0 size=    3095kB time=5.79 bitrate=4377.6kbits/s    frame=   77 fps= 12 q=31.0 size=    3319kB time=6.37 bitrate=4266.1kbits/s    frame=   83 fps= 12 q=31.0 size=    3479kB time=6.87 bitrate=4145.6kbits/s    frame=   90 fps= 12 q=31.0 size=    3703kB time=7.46 bitrate=4067.1kbits/s    frame=   96 fps= 12 q=31.0 size=    3871kB time=7.96 bitrate=3984.7kbits/s    frame=  102 fps= 12 q=31.0 size=    4075kB time=8.46 bitrate=3945.9kbits/s    frame=  105 fps= 12 q=31.0 Lsize=    4167kB time=8.71 bitrate=3919.3kbits/s    video:4165kB audio:0kB global headers:0kB muxing overhead 0.044316%